<svg id="coding" xmlns="http://www.w3.org/2000/svg" xmlns:xlink="http://www.w3.org/1999/xlink" width="50.158" height="58.366" viewBox="0 0 50.158 58.366">
  <defs>
    <linearGradient id="linear-gradient" x1="-0.051" y1="1" x2="0.5" y2="0.543" gradientUnits="objectBoundingBox">
      <stop offset="0" stop-color="#245efb"/>
      <stop offset="1" stop-color="#b308b8"/>
    </linearGradient>
  </defs>
  <g id="Group_13" data-name="Group 13">
    <g id="Group_12" data-name="Group 12">
      <path id="Path_1" data-name="Path 1" d="M50.347,26.691a2.28,2.28,0,0,0,3.224-3.224l-2.948-2.948,2.948-2.948a2.28,2.28,0,0,0-3.224-3.224l-4.56,4.56a2.28,2.28,0,0,0,0,3.224Zm24.411,18H47.4a2.28,2.28,0,0,0,0,4.56H74.758a2.28,2.28,0,1,0,0-4.56ZM58.246,31.851a2.28,2.28,0,0,0,2.765-1.659l4.56-18.239a2.28,2.28,0,0,0-4.424-1.106l-4.56,18.239A2.28,2.28,0,0,0,58.246,31.851ZM79.318,0H42.84A6.847,6.847,0,0,0,36,6.84V51.526a6.847,6.847,0,0,0,6.84,6.84H79.318a6.847,6.847,0,0,0,6.84-6.84V6.84A6.847,6.847,0,0,0,79.318,0ZM81.6,51.526a2.282,2.282,0,0,1-2.28,2.28H42.84a2.282,2.282,0,0,1-2.28-2.28V6.84a2.282,2.282,0,0,1,2.28-2.28H79.318A2.282,2.282,0,0,1,81.6,6.84Zm-6.84-15.959H47.4a2.28,2.28,0,0,0,0,4.56H74.758a2.28,2.28,0,1,0,0-4.56ZM71.811,14.347a2.28,2.28,0,0,0-3.224,3.224l2.948,2.948-2.948,2.948a2.28,2.28,0,0,0,3.224,3.224l4.56-4.56a2.28,2.28,0,0,0,0-3.224Z" transform="translate(-36)" fill="url(#linear-gradient)"/>
    </g>
  </g>
</svg>
