<svg xmlns="http://www.w3.org/2000/svg" xmlns:xlink="http://www.w3.org/1999/xlink" width="41.487" height="41.442" viewBox="0 0 41.487 41.442">
  <defs>
    <linearGradient id="linear-gradient" x1="0.5" x2="0.5" y2="1" gradientUnits="objectBoundingBox">
      <stop offset="0" stop-color="#245efb"/>
      <stop offset="1" stop-color="#b308b8"/>
    </linearGradient>
  </defs>
  <g id="instagram" transform="translate(-398.512 -339.755)">
    <ellipse id="Ellipse_5" data-name="Ellipse 5" cx="20.744" cy="20.721" rx="20.744" ry="20.721" transform="translate(398.512 339.755)" fill="url(#linear-gradient)"/>
    <path id="Path_5" data-name="Path 5" d="M415.106,350.476c1.074-.05,1.416-.061,4.151-.061s3.076.012,4.149.061a7.39,7.39,0,0,1,2.445.467,5.147,5.147,0,0,1,2.943,2.941,7.368,7.368,0,0,1,.469,2.44c.049,1.074.06,1.416.06,4.147s-.011,3.073-.06,4.146a7.342,7.342,0,0,1-.469,2.44A5.132,5.132,0,0,1,425.851,370a7.384,7.384,0,0,1-2.443.468c-1.075.05-1.417.061-4.151.061s-3.077-.012-4.151-.061a7.369,7.369,0,0,1-2.443-.468,5.138,5.138,0,0,1-2.945-2.94,7.427,7.427,0,0,1-.468-2.44c-.049-1.075-.06-1.416-.06-4.147s.012-3.073.06-4.145a7.4,7.4,0,0,1,.468-2.442,5.153,5.153,0,0,1,2.944-2.941,7.425,7.425,0,0,1,2.444-.467Zm8.219,1.81c-1.062-.049-1.381-.059-4.068-.059s-3.007.01-4.068.059a5.554,5.554,0,0,0-1.87.346,3.14,3.14,0,0,0-1.158.752,3.107,3.107,0,0,0-.752,1.156,5.564,5.564,0,0,0-.347,1.868c-.048,1.06-.058,1.378-.058,4.063s.01,3,.058,4.063a5.564,5.564,0,0,0,.347,1.868,3.325,3.325,0,0,0,1.91,1.908,5.581,5.581,0,0,0,1.87.346c1.061.049,1.379.059,4.068.059s3.006-.01,4.068-.059a5.573,5.573,0,0,0,1.869-.346,3.325,3.325,0,0,0,1.91-1.908,5.564,5.564,0,0,0,.347-1.868c.049-1.06.059-1.378.059-4.063s-.01-3-.059-4.063a5.564,5.564,0,0,0-.347-1.868,3.325,3.325,0,0,0-1.91-1.908A5.547,5.547,0,0,0,423.325,352.286Zm-5.354,11.285a3.357,3.357,0,1,0-1.2-.847A3.364,3.364,0,0,0,417.971,363.571Zm-2.373-6.755a5.164,5.164,0,1,1-1.516,3.655A5.17,5.17,0,0,1,415.6,356.816Zm9.981-.744a1.223,1.223,0,0,0-.38-2.022,1.242,1.242,0,0,0-.478-.089,1.222,1.222,0,1,0,.858,2.111Z" fill="#fff" fill-rule="evenodd"/>
  </g>
</svg>
